<mxfile host="app.diagrams.net" modified="2024-02-22T00:51:50.495Z" agent="Mozilla/5.0 (Windows NT 10.0; Win64; x64) AppleWebKit/537.36 (KHTML, like Gecko) Chrome/121.0.0.0 Safari/537.36" etag="tBf6FHz8sKF1Odz6cbwu" version="23.1.5" type="github">
  <diagram name="Page-1" id="q2zQ57r0S87OHBuqfP04">
    <mxGraphModel dx="1720" dy="1796" grid="1" gridSize="10" guides="1" tooltips="1" connect="1" arrows="1" fold="1" page="1" pageScale="1" pageWidth="850" pageHeight="1100" math="0" shadow="0">
      <root>
        <mxCell id="0" />
        <mxCell id="1" parent="0" />
        <mxCell id="FWS2L0Vgk6QhZWGwQe0K-76" value="" style="rounded=0;whiteSpace=wrap;html=1;" parent="1" vertex="1">
          <mxGeometry x="180" y="-160" width="990" height="1710" as="geometry" />
        </mxCell>
        <mxCell id="FWS2L0Vgk6QhZWGwQe0K-2" value="Host" style="shape=umlActor;verticalLabelPosition=bottom;verticalAlign=top;html=1;outlineConnect=0;" parent="1" vertex="1">
          <mxGeometry x="90" y="742.5" width="30" height="60" as="geometry" />
        </mxCell>
        <mxCell id="FWS2L0Vgk6QhZWGwQe0K-3" value="Sponsor" style="shape=umlActor;verticalLabelPosition=bottom;verticalAlign=top;html=1;outlineConnect=0;" parent="1" vertex="1">
          <mxGeometry x="1270" y="300" width="30" height="60" as="geometry" />
        </mxCell>
        <mxCell id="FWS2L0Vgk6QhZWGwQe0K-4" value="Register" style="ellipse;whiteSpace=wrap;html=1;strokeWidth=1;" parent="1" vertex="1">
          <mxGeometry x="323" y="-40" width="120" height="80" as="geometry" />
        </mxCell>
        <mxCell id="FWS2L0Vgk6QhZWGwQe0K-5" value="Login" style="ellipse;whiteSpace=wrap;html=1;strokeWidth=1;" parent="1" vertex="1">
          <mxGeometry x="330" y="136" width="120" height="74" as="geometry" />
        </mxCell>
        <mxCell id="FWS2L0Vgk6QhZWGwQe0K-6" value="View Games" style="ellipse;whiteSpace=wrap;html=1;strokeWidth=1;" parent="1" vertex="1">
          <mxGeometry x="340" y="250" width="120" height="70" as="geometry" />
        </mxCell>
        <mxCell id="FWS2L0Vgk6QhZWGwQe0K-8" value="View Tournament" style="ellipse;whiteSpace=wrap;html=1;strokeWidth=1;" parent="1" vertex="1">
          <mxGeometry x="760" y="390" width="120" height="80" as="geometry" />
        </mxCell>
        <mxCell id="FWS2L0Vgk6QhZWGwQe0K-9" value="Manage Tournament" style="ellipse;whiteSpace=wrap;html=1;strokeWidth=1;" parent="1" vertex="1">
          <mxGeometry x="359" y="820" width="120" height="80" as="geometry" />
        </mxCell>
        <mxCell id="FWS2L0Vgk6QhZWGwQe0K-10" value="Manage Games" style="ellipse;whiteSpace=wrap;html=1;strokeWidth=1;" parent="1" vertex="1">
          <mxGeometry x="350" y="930" width="120" height="80" as="geometry" />
        </mxCell>
        <mxCell id="FWS2L0Vgk6QhZWGwQe0K-11" value="Manage Users" style="ellipse;whiteSpace=wrap;html=1;strokeWidth=1;" parent="1" vertex="1">
          <mxGeometry x="305" y="1210" width="120" height="80" as="geometry" />
        </mxCell>
        <mxCell id="FWS2L0Vgk6QhZWGwQe0K-12" value="Sponsor Tournament" style="ellipse;whiteSpace=wrap;html=1;strokeWidth=1;" parent="1" vertex="1">
          <mxGeometry x="910" y="281" width="120" height="80" as="geometry" />
        </mxCell>
        <mxCell id="FWS2L0Vgk6QhZWGwQe0K-13" value="View Leaderboard" style="ellipse;whiteSpace=wrap;html=1;strokeWidth=1;" parent="1" vertex="1">
          <mxGeometry x="348" y="613" width="120" height="80" as="geometry" />
        </mxCell>
        <mxCell id="FWS2L0Vgk6QhZWGwQe0K-14" value="Viewer" style="shape=umlActor;verticalLabelPosition=bottom;verticalAlign=top;html=1;outlineConnect=0;" parent="1" vertex="1">
          <mxGeometry x="1270" y="10" width="30" height="60" as="geometry" />
        </mxCell>
        <mxCell id="FWS2L0Vgk6QhZWGwQe0K-15" value="Registered Player" style="shape=umlActor;verticalLabelPosition=bottom;verticalAlign=top;html=1;outlineConnect=0;" parent="1" vertex="1">
          <mxGeometry x="67" y="360" width="30" height="60" as="geometry" />
        </mxCell>
        <mxCell id="FWS2L0Vgk6QhZWGwQe0K-18" value="" style="endArrow=block;endSize=16;endFill=0;html=1;rounded=0;" parent="1" edge="1">
          <mxGeometry width="160" relative="1" as="geometry">
            <mxPoint x="86" y="340" as="sourcePoint" />
            <mxPoint x="86" y="270" as="targetPoint" />
          </mxGeometry>
        </mxCell>
        <mxCell id="FWS2L0Vgk6QhZWGwQe0K-21" value="" style="endArrow=none;html=1;rounded=0;entryX=0.036;entryY=0.704;entryDx=0;entryDy=0;entryPerimeter=0;" parent="1" edge="1" target="FWS2L0Vgk6QhZWGwQe0K-5">
          <mxGeometry width="50" height="50" relative="1" as="geometry">
            <mxPoint x="120" y="390" as="sourcePoint" />
            <mxPoint x="320" y="190" as="targetPoint" />
          </mxGeometry>
        </mxCell>
        <mxCell id="FWS2L0Vgk6QhZWGwQe0K-30" value="" style="endArrow=none;html=1;rounded=0;entryX=0;entryY=0.5;entryDx=0;entryDy=0;" parent="1" target="FWS2L0Vgk6QhZWGwQe0K-9" edge="1">
          <mxGeometry width="50" height="50" relative="1" as="geometry">
            <mxPoint x="150" y="810" as="sourcePoint" />
            <mxPoint x="348.1199999999999" y="847.5" as="targetPoint" />
          </mxGeometry>
        </mxCell>
        <mxCell id="FWS2L0Vgk6QhZWGwQe0K-35" value="Select Game" style="ellipse;whiteSpace=wrap;html=1;strokeWidth=1;" parent="1" vertex="1">
          <mxGeometry x="760" y="240" width="120" height="80" as="geometry" />
        </mxCell>
        <mxCell id="FWS2L0Vgk6QhZWGwQe0K-37" value="&amp;lt;&amp;lt;include&amp;gt;&amp;gt;" style="endArrow=open;dashed=1;html=1;endFill=0;rounded=0;entryX=0;entryY=0.5;entryDx=0;entryDy=0;" parent="1" edge="1" target="FWS2L0Vgk6QhZWGwQe0K-35">
          <mxGeometry width="50" height="50" relative="1" as="geometry">
            <mxPoint x="460" y="280" as="sourcePoint" />
            <mxPoint x="570" y="280" as="targetPoint" />
          </mxGeometry>
        </mxCell>
        <mxCell id="FWS2L0Vgk6QhZWGwQe0K-38" value="" style="endArrow=none;html=1;rounded=0;entryX=0;entryY=0.5;entryDx=0;entryDy=0;" parent="1" edge="1" target="FWS2L0Vgk6QhZWGwQe0K-10">
          <mxGeometry width="50" height="50" relative="1" as="geometry">
            <mxPoint x="130" y="823.5" as="sourcePoint" />
            <mxPoint x="340" y="943.5" as="targetPoint" />
          </mxGeometry>
        </mxCell>
        <mxCell id="FWS2L0Vgk6QhZWGwQe0K-40" value="Marketing" style="ellipse;whiteSpace=wrap;html=1;strokeWidth=1;" parent="1" vertex="1">
          <mxGeometry x="323" y="1060" width="120" height="80" as="geometry" />
        </mxCell>
        <mxCell id="FWS2L0Vgk6QhZWGwQe0K-42" value="" style="endArrow=none;html=1;rounded=0;entryX=0;entryY=0.5;entryDx=0;entryDy=0;" parent="1" edge="1" target="FWS2L0Vgk6QhZWGwQe0K-40">
          <mxGeometry width="50" height="50" relative="1" as="geometry">
            <mxPoint x="140" y="1007" as="sourcePoint" />
            <mxPoint x="350" y="1177" as="targetPoint" />
          </mxGeometry>
        </mxCell>
        <mxCell id="FWS2L0Vgk6QhZWGwQe0K-43" value="&amp;lt;&amp;lt;include&amp;gt;&amp;gt;" style="endArrow=open;dashed=1;html=1;endFill=0;rounded=0;exitX=0.451;exitY=1.125;exitDx=0;exitDy=0;exitPerimeter=0;entryX=0.5;entryY=0;entryDx=0;entryDy=0;" parent="1" source="FWS2L0Vgk6QhZWGwQe0K-35" edge="1" target="FWS2L0Vgk6QhZWGwQe0K-8">
          <mxGeometry width="50" height="50" relative="1" as="geometry">
            <mxPoint x="510" y="360" as="sourcePoint" />
            <mxPoint x="624" y="380" as="targetPoint" />
          </mxGeometry>
        </mxCell>
        <mxCell id="FWS2L0Vgk6QhZWGwQe0K-44" value="Join Tournament" style="ellipse;whiteSpace=wrap;html=1;strokeWidth=1;" parent="1" vertex="1">
          <mxGeometry x="348" y="370" width="120" height="80" as="geometry" />
        </mxCell>
        <mxCell id="FWS2L0Vgk6QhZWGwQe0K-52" value="" style="endArrow=none;html=1;rounded=0;entryX=0;entryY=0.5;entryDx=0;entryDy=0;" parent="1" edge="1" target="FWS2L0Vgk6QhZWGwQe0K-13">
          <mxGeometry width="50" height="50" relative="1" as="geometry">
            <mxPoint x="140" y="772.5" as="sourcePoint" />
            <mxPoint x="350" y="722.5" as="targetPoint" />
          </mxGeometry>
        </mxCell>
        <mxCell id="FWS2L0Vgk6QhZWGwQe0K-56" value="" style="endArrow=none;html=1;rounded=0;entryX=-0.037;entryY=0.781;entryDx=0;entryDy=0;entryPerimeter=0;" parent="1" edge="1" target="FWS2L0Vgk6QhZWGwQe0K-4">
          <mxGeometry width="50" height="50" relative="1" as="geometry">
            <mxPoint x="120" y="210" as="sourcePoint" />
            <mxPoint x="310" y="70" as="targetPoint" />
          </mxGeometry>
        </mxCell>
        <mxCell id="FWS2L0Vgk6QhZWGwQe0K-58" value="New Player" style="shape=umlActor;verticalLabelPosition=bottom;verticalAlign=top;html=1;outlineConnect=0;" parent="1" vertex="1">
          <mxGeometry x="72" y="171" width="30" height="60" as="geometry" />
        </mxCell>
        <mxCell id="FWS2L0Vgk6QhZWGwQe0K-62" value="" style="endArrow=none;html=1;rounded=0;entryX=0;entryY=1;entryDx=0;entryDy=0;entryPerimeter=0;exitX=1;exitY=0.5;exitDx=0;exitDy=0;" parent="1" source="FWS2L0Vgk6QhZWGwQe0K-12" edge="1" target="FWS2L0Vgk6QhZWGwQe0K-3">
          <mxGeometry width="50" height="50" relative="1" as="geometry">
            <mxPoint x="941.7200000000003" y="470" as="sourcePoint" />
            <mxPoint x="880" y="370" as="targetPoint" />
          </mxGeometry>
        </mxCell>
        <mxCell id="FWS2L0Vgk6QhZWGwQe0K-64" value="E- Ticket System" style="shape=umlActor;verticalLabelPosition=bottom;verticalAlign=top;html=1;outlineConnect=0;" parent="1" vertex="1">
          <mxGeometry x="1275" y="633" width="30" height="60" as="geometry" />
        </mxCell>
        <mxCell id="FWS2L0Vgk6QhZWGwQe0K-77" value="&lt;font style=&quot;font-size: 18px;&quot;&gt;&lt;b&gt;Online Gaming Tournament&lt;/b&gt;&lt;/font&gt;" style="text;html=1;align=center;verticalAlign=middle;whiteSpace=wrap;rounded=0;" parent="1" vertex="1">
          <mxGeometry x="484" y="-90" width="350" height="30" as="geometry" />
        </mxCell>
        <mxCell id="FWS2L0Vgk6QhZWGwQe0K-78" value="Admin" style="shape=umlActor;verticalLabelPosition=bottom;verticalAlign=top;html=1;outlineConnect=0;" parent="1" vertex="1">
          <mxGeometry x="72" y="1130" width="30" height="60" as="geometry" />
        </mxCell>
        <mxCell id="FWS2L0Vgk6QhZWGwQe0K-83" value="Purchase Ticket" style="ellipse;whiteSpace=wrap;html=1;strokeWidth=1;" parent="1" vertex="1">
          <mxGeometry x="780" y="590" width="120" height="80" as="geometry" />
        </mxCell>
        <mxCell id="FWS2L0Vgk6QhZWGwQe0K-84" value="Checkout" style="ellipse;whiteSpace=wrap;html=1;strokeWidth=1;" parent="1" vertex="1">
          <mxGeometry x="770" y="773" width="120" height="80" as="geometry" />
        </mxCell>
        <mxCell id="FWS2L0Vgk6QhZWGwQe0K-85" value="" style="endArrow=none;html=1;rounded=0;exitX=1;exitY=0.5;exitDx=0;exitDy=0;" parent="1" target="FWS2L0Vgk6QhZWGwQe0K-64" edge="1" source="FWS2L0Vgk6QhZWGwQe0K-83">
          <mxGeometry width="50" height="50" relative="1" as="geometry">
            <mxPoint x="655.5" y="622" as="sourcePoint" />
            <mxPoint x="890" y="720" as="targetPoint" />
          </mxGeometry>
        </mxCell>
        <mxCell id="FWS2L0Vgk6QhZWGwQe0K-86" value="&amp;lt;&amp;lt;include&amp;gt;&amp;gt;" style="endArrow=open;dashed=1;html=1;endFill=0;rounded=0;exitX=0.424;exitY=1.065;exitDx=0;exitDy=0;exitPerimeter=0;entryX=0.5;entryY=0;entryDx=0;entryDy=0;" parent="1" source="FWS2L0Vgk6QhZWGwQe0K-83" target="FWS2L0Vgk6QhZWGwQe0K-84" edge="1">
          <mxGeometry width="50" height="50" relative="1" as="geometry">
            <mxPoint x="570" y="670" as="sourcePoint" />
            <mxPoint x="659" y="760" as="targetPoint" />
          </mxGeometry>
        </mxCell>
        <mxCell id="FWS2L0Vgk6QhZWGwQe0K-87" value="Payment Service" style="shape=umlActor;verticalLabelPosition=bottom;verticalAlign=top;html=1;outlineConnect=0;" parent="1" vertex="1">
          <mxGeometry x="1270" y="853" width="30" height="61" as="geometry" />
        </mxCell>
        <mxCell id="FWS2L0Vgk6QhZWGwQe0K-89" value="" style="endArrow=none;html=1;rounded=0;exitX=1;exitY=0.5;exitDx=0;exitDy=0;" parent="1" source="FWS2L0Vgk6QhZWGwQe0K-84" target="FWS2L0Vgk6QhZWGwQe0K-87" edge="1">
          <mxGeometry width="50" height="50" relative="1" as="geometry">
            <mxPoint x="665.5" y="632" as="sourcePoint" />
            <mxPoint x="920" y="725" as="targetPoint" />
          </mxGeometry>
        </mxCell>
        <mxCell id="FWS2L0Vgk6QhZWGwQe0K-91" value="&amp;lt;&amp;lt;include&amp;gt;&amp;gt;" style="endArrow=open;dashed=1;html=1;endFill=0;rounded=0;exitX=0.5;exitY=1;exitDx=0;exitDy=0;entryX=0.447;entryY=-0.055;entryDx=0;entryDy=0;entryPerimeter=0;" parent="1" source="FWS2L0Vgk6QhZWGwQe0K-4" edge="1">
          <mxGeometry width="50" height="50" relative="1" as="geometry">
            <mxPoint x="385.8800000000001" y="85.40000000000009" as="sourcePoint" />
            <mxPoint x="383.6400000000001" y="132.5999999999999" as="targetPoint" />
          </mxGeometry>
        </mxCell>
        <mxCell id="pCyL4luhshKcZ0BJStXx-1" value="&amp;lt;&amp;lt;include&amp;gt;&amp;gt;" style="endArrow=open;dashed=1;html=1;endFill=0;rounded=0;exitX=1;exitY=1;exitDx=0;exitDy=0;entryX=0.425;entryY=-0.095;entryDx=0;entryDy=0;entryPerimeter=0;" edge="1" parent="1" source="FWS2L0Vgk6QhZWGwQe0K-44" target="FWS2L0Vgk6QhZWGwQe0K-83">
          <mxGeometry x="0.4443" y="7" width="50" height="50" relative="1" as="geometry">
            <mxPoint x="550" y="550" as="sourcePoint" />
            <mxPoint x="660" y="550" as="targetPoint" />
            <mxPoint x="1" as="offset" />
          </mxGeometry>
        </mxCell>
        <mxCell id="pCyL4luhshKcZ0BJStXx-2" value="&amp;lt;&amp;lt;include&amp;gt;&amp;gt;" style="endArrow=open;dashed=1;html=1;endFill=0;rounded=0;exitX=0.524;exitY=1.105;exitDx=0;exitDy=0;exitPerimeter=0;entryX=0.447;entryY=-0.055;entryDx=0;entryDy=0;entryPerimeter=0;" edge="1" parent="1">
          <mxGeometry width="50" height="50" relative="1" as="geometry">
            <mxPoint x="393" y="210" as="sourcePoint" />
            <mxPoint x="394" y="256" as="targetPoint" />
          </mxGeometry>
        </mxCell>
        <mxCell id="pCyL4luhshKcZ0BJStXx-5" value="&amp;lt;&amp;lt;include&amp;gt;&amp;gt;" style="endArrow=open;dashed=1;html=1;endFill=0;rounded=0;entryX=0.975;entryY=0.387;entryDx=0;entryDy=0;entryPerimeter=0;exitX=0.025;exitY=0.337;exitDx=0;exitDy=0;exitPerimeter=0;" edge="1" parent="1" source="FWS2L0Vgk6QhZWGwQe0K-8" target="FWS2L0Vgk6QhZWGwQe0K-44">
          <mxGeometry width="50" height="50" relative="1" as="geometry">
            <mxPoint x="470" y="290" as="sourcePoint" />
            <mxPoint x="580" y="290" as="targetPoint" />
          </mxGeometry>
        </mxCell>
        <mxCell id="pCyL4luhshKcZ0BJStXx-6" value="In Tournament" style="ellipse;whiteSpace=wrap;html=1;strokeWidth=1;" vertex="1" parent="1">
          <mxGeometry x="782" y="929" width="120" height="80" as="geometry" />
        </mxCell>
        <mxCell id="pCyL4luhshKcZ0BJStXx-9" value="&amp;lt;&amp;lt;include&amp;gt;&amp;gt;" style="endArrow=open;dashed=1;html=1;endFill=0;rounded=0;exitX=0.5;exitY=1;exitDx=0;exitDy=0;" edge="1" parent="1" source="FWS2L0Vgk6QhZWGwQe0K-84">
          <mxGeometry width="50" height="50" relative="1" as="geometry">
            <mxPoint x="840" y="850" as="sourcePoint" />
            <mxPoint x="835" y="930" as="targetPoint" />
          </mxGeometry>
        </mxCell>
        <mxCell id="pCyL4luhshKcZ0BJStXx-10" value="End Tournament" style="ellipse;whiteSpace=wrap;html=1;strokeWidth=1;" vertex="1" parent="1">
          <mxGeometry x="605" y="1237.5" width="120" height="80" as="geometry" />
        </mxCell>
        <mxCell id="pCyL4luhshKcZ0BJStXx-12" value="&amp;lt;&amp;lt;include&amp;gt;&amp;gt;" style="endArrow=open;dashed=1;html=1;endFill=0;rounded=0;entryX=0;entryY=0;entryDx=0;entryDy=0;exitX=1;exitY=1;exitDx=0;exitDy=0;" edge="1" parent="1" target="pCyL4luhshKcZ0BJStXx-10">
          <mxGeometry width="50" height="50" relative="1" as="geometry">
            <mxPoint x="483.42640687119274" y="923.7842712474621" as="sourcePoint" />
            <mxPoint x="633" y="982.5" as="targetPoint" />
          </mxGeometry>
        </mxCell>
        <mxCell id="pCyL4luhshKcZ0BJStXx-13" value="&lt;div&gt;&amp;lt;&amp;lt;extend&amp;gt;&amp;gt;&lt;/div&gt;" style="endArrow=open;dashed=1;html=1;endFill=0;rounded=0;entryX=0.338;entryY=-0.044;entryDx=0;entryDy=0;entryPerimeter=0;exitX=1;exitY=1;exitDx=0;exitDy=0;" edge="1" parent="1" source="FWS2L0Vgk6QhZWGwQe0K-13" target="pCyL4luhshKcZ0BJStXx-10">
          <mxGeometry width="50" height="50" relative="1" as="geometry">
            <mxPoint x="487" y="742.5" as="sourcePoint" />
            <mxPoint x="637" y="952.5" as="targetPoint" />
          </mxGeometry>
        </mxCell>
        <mxCell id="pCyL4luhshKcZ0BJStXx-14" value="Tournament Dashboard" style="ellipse;whiteSpace=wrap;html=1;strokeWidth=1;" vertex="1" parent="1">
          <mxGeometry x="870" y="30" width="120" height="80" as="geometry" />
        </mxCell>
        <mxCell id="pCyL4luhshKcZ0BJStXx-15" value="" style="endArrow=none;html=1;rounded=0;exitX=1;exitY=0.5;exitDx=0;exitDy=0;" edge="1" parent="1" source="pCyL4luhshKcZ0BJStXx-14" target="FWS2L0Vgk6QhZWGwQe0K-14">
          <mxGeometry width="50" height="50" relative="1" as="geometry">
            <mxPoint x="285" y="221" as="sourcePoint" />
            <mxPoint x="1025" y="81" as="targetPoint" />
          </mxGeometry>
        </mxCell>
        <mxCell id="pCyL4luhshKcZ0BJStXx-19" value="Join Live Stream" style="ellipse;whiteSpace=wrap;html=1;strokeWidth=1;" vertex="1" parent="1">
          <mxGeometry x="630" y="30" width="120" height="80" as="geometry" />
        </mxCell>
        <mxCell id="pCyL4luhshKcZ0BJStXx-22" value="&amp;lt;&amp;lt;include&amp;gt;&amp;gt;" style="endArrow=open;dashed=1;html=1;endFill=0;rounded=0;exitX=0;exitY=0.5;exitDx=0;exitDy=0;entryX=1;entryY=0.5;entryDx=0;entryDy=0;" edge="1" parent="1" source="pCyL4luhshKcZ0BJStXx-14" target="pCyL4luhshKcZ0BJStXx-19">
          <mxGeometry width="50" height="50" relative="1" as="geometry">
            <mxPoint x="357" y="-139" as="sourcePoint" />
            <mxPoint x="467" y="-139" as="targetPoint" />
          </mxGeometry>
        </mxCell>
        <mxCell id="pCyL4luhshKcZ0BJStXx-23" value="&amp;lt;&amp;lt;include&amp;gt;&amp;gt;" style="endArrow=open;dashed=1;html=1;endFill=0;rounded=0;exitX=0.372;exitY=1.064;exitDx=0;exitDy=0;exitPerimeter=0;entryX=0.5;entryY=0;entryDx=0;entryDy=0;" edge="1" parent="1" source="pCyL4luhshKcZ0BJStXx-6" target="pCyL4luhshKcZ0BJStXx-10">
          <mxGeometry width="50" height="50" relative="1" as="geometry">
            <mxPoint x="667.5" y="850" as="sourcePoint" />
            <mxPoint x="668" y="900" as="targetPoint" />
          </mxGeometry>
        </mxCell>
        <mxCell id="pCyL4luhshKcZ0BJStXx-26" value="&lt;div&gt;&amp;lt;&amp;lt;extend&amp;gt;&amp;gt;&lt;/div&gt;" style="endArrow=open;dashed=1;html=1;endFill=0;rounded=0;entryX=1;entryY=0.5;entryDx=0;entryDy=0;exitX=0;exitY=0;exitDx=0;exitDy=0;" edge="1" parent="1" source="pCyL4luhshKcZ0BJStXx-27" target="pCyL4luhshKcZ0BJStXx-6">
          <mxGeometry width="50" height="50" relative="1" as="geometry">
            <mxPoint x="957" y="1009" as="sourcePoint" />
            <mxPoint x="1067" y="1009" as="targetPoint" />
          </mxGeometry>
        </mxCell>
        <mxCell id="pCyL4luhshKcZ0BJStXx-27" value="Report Issue" style="ellipse;whiteSpace=wrap;html=1;strokeWidth=1;" vertex="1" parent="1">
          <mxGeometry x="990" y="1020" width="120" height="80" as="geometry" />
        </mxCell>
        <mxCell id="pCyL4luhshKcZ0BJStXx-28" value="Update Profile" style="ellipse;whiteSpace=wrap;html=1;strokeWidth=1;" vertex="1" parent="1">
          <mxGeometry x="250" y="336" width="120" height="74" as="geometry" />
        </mxCell>
        <mxCell id="pCyL4luhshKcZ0BJStXx-29" value="Reset Password" style="ellipse;whiteSpace=wrap;html=1;strokeWidth=1;" vertex="1" parent="1">
          <mxGeometry x="270" y="460" width="120" height="74" as="geometry" />
        </mxCell>
        <mxCell id="pCyL4luhshKcZ0BJStXx-30" value="" style="endArrow=none;html=1;rounded=0;entryX=0;entryY=0.5;entryDx=0;entryDy=0;" edge="1" parent="1" target="pCyL4luhshKcZ0BJStXx-28">
          <mxGeometry width="50" height="50" relative="1" as="geometry">
            <mxPoint x="120" y="400" as="sourcePoint" />
            <mxPoint x="330" y="350" as="targetPoint" />
          </mxGeometry>
        </mxCell>
        <mxCell id="pCyL4luhshKcZ0BJStXx-31" value="" style="endArrow=none;html=1;rounded=0;entryX=0;entryY=0.5;entryDx=0;entryDy=0;" edge="1" parent="1" target="pCyL4luhshKcZ0BJStXx-29">
          <mxGeometry width="50" height="50" relative="1" as="geometry">
            <mxPoint x="130" y="410" as="sourcePoint" />
            <mxPoint x="239" y="373" as="targetPoint" />
          </mxGeometry>
        </mxCell>
        <mxCell id="pCyL4luhshKcZ0BJStXx-32" value="Sales Team" style="shape=umlActor;verticalLabelPosition=bottom;verticalAlign=top;html=1;outlineConnect=0;" vertex="1" parent="1">
          <mxGeometry x="90" y="960" width="30" height="60" as="geometry" />
        </mxCell>
        <mxCell id="pCyL4luhshKcZ0BJStXx-33" value="" style="endArrow=none;html=1;rounded=0;entryX=0;entryY=0.5;entryDx=0;entryDy=0;" edge="1" parent="1">
          <mxGeometry width="50" height="50" relative="1" as="geometry">
            <mxPoint x="123" y="1164" as="sourcePoint" />
            <mxPoint x="306" y="1244" as="targetPoint" />
          </mxGeometry>
        </mxCell>
        <mxCell id="pCyL4luhshKcZ0BJStXx-34" value="Report Result" style="ellipse;whiteSpace=wrap;html=1;strokeWidth=1;" vertex="1" parent="1">
          <mxGeometry x="359" y="722.5" width="120" height="80" as="geometry" />
        </mxCell>
        <mxCell id="pCyL4luhshKcZ0BJStXx-35" value="" style="endArrow=none;html=1;rounded=0;entryX=0;entryY=0.5;entryDx=0;entryDy=0;" edge="1" parent="1" target="pCyL4luhshKcZ0BJStXx-34">
          <mxGeometry width="50" height="50" relative="1" as="geometry">
            <mxPoint x="140" y="790" as="sourcePoint" />
            <mxPoint x="358" y="838.5" as="targetPoint" />
          </mxGeometry>
        </mxCell>
        <mxCell id="pCyL4luhshKcZ0BJStXx-36" value="Join&amp;nbsp; Free Tournament" style="ellipse;whiteSpace=wrap;html=1;strokeWidth=1;" vertex="1" parent="1">
          <mxGeometry x="453" y="290" width="120" height="80" as="geometry" />
        </mxCell>
        <mxCell id="pCyL4luhshKcZ0BJStXx-37" value="Join Premium Tournament" style="ellipse;whiteSpace=wrap;html=1;strokeWidth=1;" vertex="1" parent="1">
          <mxGeometry x="479" y="410" width="120" height="80" as="geometry" />
        </mxCell>
        <mxCell id="pCyL4luhshKcZ0BJStXx-39" value="" style="endArrow=block;endSize=16;endFill=0;html=1;rounded=0;entryX=0.5;entryY=0;entryDx=0;entryDy=0;exitX=0;exitY=0.5;exitDx=0;exitDy=0;" edge="1" parent="1" source="pCyL4luhshKcZ0BJStXx-36" target="FWS2L0Vgk6QhZWGwQe0K-44">
          <mxGeometry width="160" relative="1" as="geometry">
            <mxPoint x="420" y="360" as="sourcePoint" />
            <mxPoint x="420" y="300" as="targetPoint" />
          </mxGeometry>
        </mxCell>
        <mxCell id="pCyL4luhshKcZ0BJStXx-40" value="" style="endArrow=block;endSize=16;endFill=0;html=1;rounded=0;entryX=0.933;entryY=0.663;entryDx=0;entryDy=0;exitX=0;exitY=0;exitDx=0;exitDy=0;entryPerimeter=0;" edge="1" parent="1" source="pCyL4luhshKcZ0BJStXx-37" target="FWS2L0Vgk6QhZWGwQe0K-44">
          <mxGeometry width="160" relative="1" as="geometry">
            <mxPoint x="463" y="340" as="sourcePoint" />
            <mxPoint x="418" y="370" as="targetPoint" />
          </mxGeometry>
        </mxCell>
      </root>
    </mxGraphModel>
  </diagram>
</mxfile>
